<svg width="190" height="190" viewBox="0 0 190 190" fill="none" xmlns="http://www.w3.org/2000/svg">
<path d="M114 37.0171C132.072 42.9354 146.425 57.0671 152.646 75H167.304C160.217 49.3229 139.819 29.1685 114 22.4276V37.0171Z" fill="white"/>
<path d="M167.304 115H152.646C146.54 132.601 132.601 146.54 115 152.646V167.304C140.345 160.309 160.309 140.345 167.304 115Z" fill="white"/>
<path d="M74 167.02V152.289C56.872 146.009 43.3439 132.266 37.3543 115H22.6962C29.599 140.01 49.131 159.781 74 167.02Z" fill="white"/>
<path d="M22.6962 75H37.3543C43.46 57.3992 57.3992 43.46 75 37.3543V22.6961C49.6553 29.6912 29.6913 49.6553 22.6962 75Z" fill="white"/>
<path d="M108 95C108 102.18 102.18 108 95 108C87.8203 108 82 102.18 82 95C82 87.8203 87.8203 82 95 82C102.18 82 108 87.8203 108 95Z" fill="white"/>
<path fill-rule="evenodd" clip-rule="evenodd" d="M87.1674 47.6359C87.0577 47.1078 87 46.5606 87 46V8C87 3.58172 90.5817 0 95 0C99.4183 0 103 3.58172 103 8V46C103 46.5606 102.942 47.1078 102.833 47.6359C123.012 50.9478 138.955 66.8442 142.336 87H182C186.418 87 190 90.5817 190 95C190 99.4183 186.418 103 182 103H142.336C138.963 123.109 123.086 138.978 102.973 142.341C102.991 142.558 103 142.778 103 143V182C103 186.418 99.4183 190 95 190C90.5817 190 87 186.418 87 182V143C87 142.778 87.009 142.558 87.0268 142.341C66.914 138.978 51.0373 123.109 47.6637 103H8C3.58172 103 0 99.4183 0 95C0 90.5817 3.58172 87 8 87H47.6637C51.0452 66.8442 66.9881 50.9478 87.1674 47.6359ZM130 95C130 114.33 114.33 130 95 130C75.67 130 60 114.33 60 95C60 75.67 75.67 60 95 60C114.33 60 130 75.67 130 95Z" fill="white"/>
</svg>
