<svg width="957" height="116" viewBox="0 0 957 116" fill="none" xmlns="http://www.w3.org/2000/svg">
<path d="M94.583 1.40168L94.6878 1.53792L94.7984 1.66953C96.0935 3.2114 96.578 4.66006 96.578 6.26799C96.578 7.70876 96.1262 9.22017 94.7005 10.9853L94.6887 10.9998L94.6771 11.0144C94.2468 11.5522 93.3584 12.362 90.484 12.362H50.638C42.3733 12.362 34.8902 14.6746 28.7343 19.7054C23.1048 24.1937 18.9332 29.9142 16.2404 36.7042C13.6269 43.1795 12.362 50.1142 12.362 57.424C12.362 64.7455 13.6308 71.7251 16.2296 78.2904L16.267 78.3849L16.3068 78.4784C19.1039 85.0518 23.2111 90.6674 28.6069 95.2113L28.6935 95.2842L28.782 95.3546C34.9466 100.255 42.4124 102.486 50.638 102.486H90.484C92.4293 102.486 93.3951 102.91 93.8764 103.23C94.7947 103.843 95.3774 104.538 95.7821 105.393L95.8185 105.47L95.8566 105.546C96.2948 106.422 96.578 107.5 96.578 108.928C96.578 110.148 96.3321 111.272 95.821 112.38C95.4448 113.104 94.864 113.793 93.8764 114.452C93.3951 114.772 92.4293 115.196 90.484 115.196H50.638C41.9383 115.196 34.7108 113.547 28.7271 110.518C22.3787 107.185 17.1914 102.909 13.06 97.6953C8.81259 92.3356 5.54643 86.2424 3.27686 79.3555C1.09041 72.252 0 65.0082 0 57.598C0 50.1643 1.09727 42.9676 3.28781 35.9787L3.29283 35.9626L3.29779 35.9466C5.45688 28.9553 8.66137 22.8317 12.886 17.5006C17.0096 12.297 22.1816 8.0885 28.5089 4.87463L28.5536 4.85192L28.5981 4.82865C34.5573 1.70713 41.8201 0 50.638 0H90.484C93.2469 0 94.1124 0.789963 94.583 1.40168Z" fill="white"/>
<path d="M70.3969 51.4495L70.6793 51.5812L70.971 51.6906C71.7082 51.9671 72.1982 52.3205 72.5807 52.7378L72.6982 52.8659L72.8212 52.9889C73.3966 53.5643 73.9174 54.2895 74.3605 55.2391C74.6362 55.8297 74.828 56.5754 74.828 57.598C74.828 58.4335 74.6646 59.1313 74.3605 59.7829C73.9158 60.7358 73.3664 61.5721 72.7075 62.3174C72.2243 62.7725 71.5482 63.2403 70.5735 63.6667L70.4847 63.7056L70.3969 63.7465C69.6786 64.0817 69.0322 64.214 68.386 64.214C67.5757 64.214 66.778 64.0595 65.9366 63.7038C65.0941 63.3001 64.4317 62.8341 63.8949 62.3224C63.2846 61.6329 62.768 60.8655 62.3415 59.9998C62.0888 59.3023 61.944 58.5193 61.944 57.598C61.944 56.5201 62.1047 55.6855 62.342 55.0221C62.7617 54.1779 63.2461 53.5197 63.7769 52.9889L63.8998 52.8659L64.0172 52.7378C64.4884 52.2238 64.9987 51.8744 65.6151 51.6278L65.7336 51.5804L65.8506 51.5293C66.7237 51.1472 67.5482 50.982 68.386 50.982C69.0322 50.982 69.6786 51.1143 70.3969 51.4495Z" fill="white"/>
<path d="M175.885 51.4495L176.088 51.5444L176.297 51.6278C176.913 51.8744 177.424 52.2238 177.895 52.7378L178.13 52.9942L178.386 53.2292C178.9 53.7004 179.25 54.2107 179.496 54.8271L179.58 55.0356L179.675 55.2391C179.95 55.8297 180.142 56.5754 180.142 57.598C180.142 58.4335 179.979 59.1313 179.675 59.7829L179.58 59.9864L179.496 60.1949C179.223 60.8785 178.8 61.5419 178.135 62.2071C177.56 62.7826 176.834 63.3034 175.885 63.7465C175.233 64.0506 174.536 64.214 173.7 64.214C172.889 64.214 172.091 64.0593 171.249 63.7031C170.385 63.2903 169.617 62.7896 168.926 62.1978C168.314 61.4828 167.799 60.6852 167.377 59.7829C167.073 59.1313 166.91 58.4335 166.91 57.598C166.91 56.5754 167.102 55.8297 167.377 55.2391C167.821 54.2895 168.341 53.5643 168.917 52.9889C169.582 52.3236 170.245 51.9013 170.929 51.6278L171.048 51.5804L171.165 51.5293C172.038 51.1472 172.862 50.982 173.7 50.982C174.536 50.982 175.233 51.1454 175.885 51.4495Z" fill="white"/>
<path fill-rule="evenodd" clip-rule="evenodd" d="M207.351 4.80397L207.419 4.83995L207.487 4.87463C213.814 8.0885 218.986 12.297 223.11 17.5006C227.335 22.8317 230.539 28.9553 232.698 35.9466L232.703 35.9626L232.708 35.9787C234.887 42.931 235.927 50.0888 235.823 57.4853L235.822 57.5417V57.598C235.822 65.0256 234.727 72.286 232.53 79.4055C230.375 86.2731 227.173 92.3482 222.936 97.6953L222.907 97.732L222.878 97.769C218.879 102.939 213.774 107.194 207.443 110.518C201.447 113.554 194.273 115.196 185.706 115.196H161.868C153.312 115.196 146.146 113.558 140.155 110.53C133.927 107.204 128.784 102.928 124.638 97.6953C120.391 92.3355 117.124 86.2423 114.855 79.3553C112.668 72.2519 111.578 65.0081 111.578 57.598C111.578 50.1377 112.625 42.9171 114.713 35.9105C116.872 28.9342 120.073 22.8225 124.29 17.5006C128.414 12.297 133.586 8.0885 139.913 4.87463L139.958 4.85192L140.002 4.82865C145.974 1.7004 153.183 0 161.868 0H185.706C194.395 0 201.523 1.70176 207.351 4.80397ZM127.634 78.2904L127.644 78.3174L127.655 78.3443C130.338 84.9799 134.41 90.6414 139.837 95.2113L139.923 95.2842L140.012 95.3546C146.177 100.255 153.642 102.486 161.868 102.486H185.706C193.847 102.486 201.231 100.236 207.293 95.2909L207.341 95.2515L207.389 95.2113C212.816 90.6414 216.888 84.9799 219.571 78.3443L219.582 78.3174L219.592 78.2904C222.191 71.7251 223.46 64.7455 223.46 57.424C223.46 50.1143 222.195 43.1798 219.582 36.7046C216.91 29.9665 212.832 24.2632 207.34 19.7694C201.289 14.6945 193.887 12.362 185.706 12.362H161.868C153.586 12.362 146.089 14.6843 139.925 19.7372C134.413 24.236 130.322 29.9507 127.644 36.7051C125.031 43.1801 123.766 50.1145 123.766 57.424C123.766 64.7455 125.035 71.7251 127.634 78.2904Z" fill="white"/>
<path d="M347.93 57.598C347.93 65.0276 346.834 72.29 344.636 79.4114C342.482 86.2766 339.28 92.3498 335.044 97.6953C330.913 102.909 325.725 107.185 319.377 110.518C313.381 113.554 306.207 115.196 297.64 115.196H256.924C254.979 115.196 254.013 114.772 253.532 114.452C252.544 113.793 251.963 113.104 251.587 112.38C251.076 111.272 250.83 110.147 250.83 108.928C250.83 107.5 251.113 106.422 251.551 105.546L251.589 105.47L251.626 105.393C252.031 104.538 252.613 103.843 253.532 103.23C254.013 102.91 254.979 102.486 256.924 102.486H297.64C305.859 102.486 313.315 100.256 319.401 95.2909L319.41 95.2838L319.419 95.2766C324.972 90.7201 329.133 85.0543 331.836 78.3849C334.575 71.7974 335.916 64.7842 335.916 57.424C335.916 50.0862 334.583 43.1267 331.837 36.6366C329.149 29.8916 324.999 24.2048 319.408 19.7361C313.338 14.6633 305.881 12.362 297.64 12.362H256.924C253.955 12.362 253.009 11.5586 252.596 11.0626C251.287 9.33566 250.83 7.79535 250.83 6.26799C250.83 4.55196 251.332 3.05336 252.557 1.52155L252.604 1.46207L252.651 1.40169C253.083 0.840469 253.966 0 256.924 0H297.64C306.325 0 313.534 1.7004 319.506 4.82865L319.55 4.85192L319.595 4.87463C325.906 8.08013 330.995 12.2668 334.986 17.427L335.015 17.464L335.044 17.5006C339.269 22.8317 342.473 28.9553 344.632 35.9466L344.637 35.9626L344.642 35.9787C346.833 42.9676 347.93 50.1643 347.93 57.598Z" fill="white"/>
<path d="M468.454 0.373421L468.752 0.522232L469.061 0.645817C469.835 0.955273 470.419 1.35251 470.899 1.83284L471.022 1.95577L471.15 2.07324C471.664 2.54438 472.014 3.05465 472.26 3.67111L472.384 3.98008L472.533 4.27771C472.777 4.7656 472.906 5.2774 472.906 5.92C472.906 6.94264 472.714 7.68828 472.439 8.2789L472.344 8.48238L472.26 8.69088C472.014 9.30734 471.664 9.81763 471.15 10.2888L471.022 10.4062L470.899 10.5291C470.349 11.0789 469.663 11.5788 468.775 12.0087C468.222 12.2302 467.59 12.362 466.812 12.362H369.198C367.372 12.362 366.044 11.8099 364.763 10.5291C363.531 9.29698 362.93 7.93229 362.93 5.92C362.93 4.46843 363.378 3.21757 364.763 1.83286C366.044 0.552078 367.372 0 369.198 0H466.812C467.455 0 467.966 0.129475 468.454 0.373421Z" fill="white"/>
<path d="M468.454 102.685L468.752 102.834L469.061 102.958C469.835 103.267 470.419 103.665 470.899 104.145L471.022 104.268L471.15 104.385C471.664 104.856 472.014 105.367 472.26 105.983L472.344 106.192L472.439 106.395C472.774 107.113 472.906 107.76 472.906 108.406C472.906 109.244 472.741 110.068 472.359 110.941L472.308 111.058L472.26 111.177C471.987 111.861 471.564 112.524 470.899 113.189C470.349 113.739 469.663 114.239 468.775 114.669C468.222 114.89 467.59 115.022 466.812 115.022H369.198C367.399 115.022 366.084 114.486 364.821 113.246C363.522 111.87 362.93 110.395 362.93 108.406C362.93 106.766 363.431 105.476 364.763 104.145C366.044 102.864 367.372 102.312 369.198 102.312H466.812C467.455 102.312 467.966 102.441 468.454 102.685Z" fill="white"/>
<path d="M438.771 50.4808L438.808 50.5409L438.846 50.6004C439.84 52.1542 440.368 53.8931 440.368 56.032C440.368 57.8749 439.88 59.5888 438.76 61.328C438.472 61.7377 438.266 61.8601 438.164 61.9124C438.039 61.9759 437.683 62.126 436.884 62.126H367.632C365.862 62.126 365.193 61.6613 364.702 61.0584C363.568 59.3632 363.104 57.7391 363.104 56.032C363.104 54.0104 363.625 52.3463 364.657 50.8167C364.981 50.3529 365.491 49.764 367.632 49.764H436.884C437.834 49.764 438.229 49.942 438.326 49.9927L438.328 49.9936C438.388 50.0248 438.538 50.1028 438.771 50.4808Z" fill="white"/>
<path d="M595.748 1.40168L595.853 1.53792L595.963 1.66952C597.258 3.21139 597.743 4.66006 597.743 6.26799C597.743 7.70876 597.291 9.22018 595.865 10.9853L595.854 10.9999L595.842 11.0144C595.412 11.5522 594.523 12.362 591.649 12.362H494.209C491.24 12.362 490.294 11.5587 489.881 11.0626C488.572 9.33568 488.115 7.79536 488.115 6.26799C488.115 4.55196 488.616 3.05336 489.842 1.52155L489.889 1.46207L489.936 1.40168C490.368 0.840469 491.251 0 494.209 0H591.649C594.412 0 595.277 0.789963 595.748 1.40168Z" fill="white"/>
<path d="M500.353 112.88L500.344 112.889L500.336 112.898C499.933 113.335 499.288 113.826 498.171 114.254C497.007 114.627 495.646 114.848 494.035 114.848C492.476 114.848 491.057 114.641 489.746 114.255C488.94 113.914 488.364 113.517 487.928 113.096C487.928 113.063 487.929 113.025 487.931 112.982L487.941 112.782V56.3802L487.933 56.2065C487.839 54.0353 488.003 52.5645 488.231 51.6367C488.365 51.0922 488.497 50.8272 488.551 50.7343C488.646 50.6644 488.932 50.4831 489.569 50.2902C490.514 50.0039 492.005 49.764 494.209 49.764H581.905C583.877 49.764 584.354 50.3088 584.723 50.8417L584.765 50.9025L584.809 50.9624C585.91 52.4917 586.433 54.1023 586.433 56.032C586.433 57.7716 585.951 59.4249 584.77 61.1552C584.45 61.5875 583.919 62.126 581.905 62.126H500.477V112.582C500.477 112.673 500.469 112.723 500.467 112.739L500.464 112.742C500.453 112.759 500.422 112.806 500.353 112.88Z" fill="white"/>
<path d="M718.267 0.373421L718.565 0.522232L718.874 0.645817C719.648 0.955273 720.232 1.35251 720.712 1.83284L720.835 1.95577L720.963 2.07324C721.477 2.54438 721.827 3.05465 722.073 3.67111L722.197 3.98008L722.346 4.27771C722.59 4.7656 722.719 5.2774 722.719 5.92C722.719 6.94264 722.527 7.68828 722.252 8.2789L722.157 8.48238L722.073 8.69088C721.827 9.30734 721.477 9.81763 720.963 10.2888L720.835 10.4062L720.712 10.5291C720.162 11.0789 719.476 11.5788 718.588 12.0088C718.034 12.2302 717.403 12.362 716.625 12.362H619.011C617.185 12.362 615.857 11.8099 614.576 10.5291C613.344 9.29698 612.743 7.93229 612.743 5.92C612.743 4.46843 613.191 3.21757 614.576 1.83286C615.857 0.552078 617.185 0 619.011 0H716.625C717.268 0 717.779 0.129475 718.267 0.373421Z" fill="white"/>
<path d="M718.267 102.685L718.565 102.834L718.874 102.958C719.648 103.267 720.232 103.665 720.712 104.145L720.835 104.268L720.963 104.385C721.477 104.856 721.827 105.367 722.073 105.983L722.157 106.192L722.252 106.395C722.587 107.113 722.719 107.76 722.719 108.406C722.719 109.244 722.554 110.068 722.172 110.941L722.121 111.058L722.073 111.177C721.8 111.861 721.377 112.524 720.712 113.189C720.162 113.739 719.476 114.239 718.588 114.669C718.035 114.89 717.403 115.022 716.625 115.022H619.011C617.211 115.022 615.896 114.486 614.632 113.245C613.335 111.869 612.743 110.394 612.743 108.406C612.743 106.766 613.244 105.476 614.576 104.145C615.857 102.864 617.185 102.312 619.011 102.312H716.625C717.268 102.312 717.779 102.441 718.267 102.685Z" fill="white"/>
<path d="M688.584 50.4808L688.621 50.5409L688.659 50.6004C689.653 52.1542 690.181 53.8931 690.181 56.032C690.181 57.875 689.693 59.5889 688.572 61.3282C688.285 61.7378 688.079 61.8601 687.977 61.9124C687.852 61.9759 687.496 62.126 686.697 62.126H617.445C615.675 62.126 615.006 61.6615 614.515 61.0587C613.381 59.3634 612.917 57.7392 612.917 56.032C612.917 54.0082 613.439 52.3427 614.473 50.8118C614.798 50.3488 615.311 49.764 617.445 49.764H686.697C687.647 49.764 688.042 49.942 688.139 49.9927L688.141 49.9936C688.201 50.0249 688.351 50.103 688.584 50.4808Z" fill="white"/>
<path d="M839.709 114.646C838.479 115.005 837.123 115.059 835.479 114.64C834.437 114.293 833.413 113.601 832.383 112.086L832.06 111.611L749.733 21.4939V108.58C749.733 111.454 748.923 112.343 748.385 112.773C746.854 113.999 745.355 114.5 743.639 114.5C742.102 114.5 740.65 114.04 739.067 112.773C738.529 112.343 737.719 111.454 737.719 108.58V5.92001C737.719 3.82285 738.216 2.8551 738.595 2.36831C739.506 1.23706 740.43 0.658062 741.444 0.349392C742.511 0.0247498 743.814 -0.049511 745.561 0.420929L745.597 0.430622L745.633 0.439976C747.093 0.81842 748.566 1.64771 750.083 3.30739L750.085 3.31016L831.157 92.7834V5.92001C831.157 3.15708 831.947 2.29156 832.559 1.821C834.263 0.509804 835.874 0 837.599 0C839.324 0 840.935 0.509804 842.639 1.82099C843.251 2.29156 844.041 3.15708 844.041 5.92001V108.58C844.041 110.826 843.476 111.872 842.988 112.447C841.975 113.638 840.914 114.295 839.709 114.646Z" fill="white"/>
<path d="M956.141 57.598C956.141 65.0276 955.045 72.29 952.847 79.4114C950.693 86.2766 947.491 92.3498 943.255 97.6953C939.124 102.909 933.937 107.185 927.589 110.518C921.593 113.553 914.418 115.196 905.851 115.196H865.135C863.19 115.196 862.224 114.772 861.743 114.452C860.755 113.793 860.174 113.104 859.798 112.38C859.287 111.272 859.041 110.147 859.041 108.928C859.041 107.5 859.324 106.422 859.762 105.546L859.801 105.47L859.837 105.393C860.242 104.538 860.824 103.843 861.743 103.23C862.224 102.91 863.19 102.486 865.135 102.486H905.851C914.07 102.486 921.526 100.256 927.612 95.2909L927.621 95.2838L927.63 95.2766C933.185 90.7181 937.348 85.0493 940.051 78.3761C942.788 71.7911 944.127 64.781 944.127 57.424C944.127 50.0852 942.794 43.125 940.047 36.6341C937.359 29.8908 933.211 24.2051 927.621 19.7372C921.551 14.6636 914.093 12.362 905.851 12.362H865.135C862.167 12.362 861.221 11.5595 860.808 11.0634C859.499 9.33612 859.041 7.79558 859.041 6.26799C859.041 4.55196 859.543 3.05336 860.768 1.52155L860.816 1.46207L860.862 1.40169C861.294 0.840469 862.177 0 865.135 0H905.851C914.536 0 921.745 1.7004 927.717 4.82865L927.761 4.85192L927.806 4.87463C934.117 8.08013 939.206 12.2668 943.198 17.427L943.226 17.464L943.255 17.5006C947.48 22.8317 950.684 28.9553 952.843 35.9466L952.848 35.9626L952.853 35.9787C955.044 42.9676 956.141 50.1643 956.141 57.598Z" fill="white"/>
</svg>
