<svg width="1199" height="190" viewBox="0 0 1199 190" fill="none" xmlns="http://www.w3.org/2000/svg">
<path d="M114 37.0171C132.072 42.9354 146.425 57.0671 152.646 75H167.304C160.217 49.3229 139.819 29.1685 114 22.4276V37.0171Z" fill="white"/>
<path d="M167.304 115H152.646C146.54 132.601 132.601 146.54 115 152.646V167.304C140.345 160.309 160.309 140.345 167.304 115Z" fill="white"/>
<path d="M74 167.02V152.289C56.872 146.009 43.3439 132.266 37.3543 115H22.6962C29.599 140.01 49.131 159.781 74 167.02Z" fill="white"/>
<path d="M22.6962 75H37.3543C43.46 57.3992 57.3992 43.46 75 37.3543V22.6961C49.6553 29.6912 29.6913 49.6553 22.6962 75Z" fill="white"/>
<path d="M108 95C108 102.18 102.18 108 95 108C87.8203 108 82 102.18 82 95C82 87.8203 87.8203 82 95 82C102.18 82 108 87.8203 108 95Z" fill="white"/>
<path fill-rule="evenodd" clip-rule="evenodd" d="M87.1674 47.6359C87.0577 47.1078 87 46.5606 87 46V8C87 3.58172 90.5817 0 95 0C99.4183 0 103 3.58172 103 8V46C103 46.5606 102.942 47.1078 102.833 47.6359C123.012 50.9478 138.955 66.8442 142.336 87H182C186.418 87 190 90.5817 190 95C190 99.4183 186.418 103 182 103H142.336C138.963 123.109 123.086 138.978 102.973 142.341C102.991 142.558 103 142.778 103 143V182C103 186.418 99.4183 190 95 190C90.5817 190 87 186.418 87 182V143C87 142.778 87.009 142.558 87.0268 142.341C66.914 138.978 51.0373 123.109 47.6637 103H8C3.58172 103 0 99.4183 0 95C0 90.5817 3.58172 87 8 87H47.6637C51.0452 66.8442 66.9881 50.9478 87.1674 47.6359ZM130 95C130 114.33 114.33 130 95 130C75.67 130 60 114.33 60 95C60 75.67 75.67 60 95 60C114.33 60 130 75.67 130 95Z" fill="white"/>
<path d="M336.583 38.4017L336.688 38.5379L336.798 38.6695C338.094 40.2114 338.578 41.6601 338.578 43.268C338.578 44.7088 338.126 46.2202 336.7 47.9853L336.689 47.9998L336.677 48.0144C336.247 48.5522 335.358 49.362 332.484 49.362H292.638C284.373 49.362 276.89 51.6746 270.734 56.7054C265.105 61.1937 260.933 66.9142 258.24 73.7042C255.627 80.1795 254.362 87.1142 254.362 94.424C254.362 101.745 255.631 108.725 258.23 115.29L258.267 115.385L258.307 115.478C261.104 122.052 265.211 127.667 270.607 132.211L270.693 132.284L270.782 132.355C276.947 137.255 284.412 139.486 292.638 139.486H332.484C334.429 139.486 335.395 139.91 335.876 140.23C336.795 140.843 337.377 141.538 337.782 142.393L337.819 142.47L337.857 142.546C338.295 143.422 338.578 144.5 338.578 145.928C338.578 147.148 338.332 148.272 337.821 149.38C337.445 150.104 336.864 150.793 335.876 151.452C335.395 151.772 334.429 152.196 332.484 152.196H292.638C283.938 152.196 276.711 150.547 270.727 147.518C264.379 144.185 259.191 139.909 255.06 134.695C250.813 129.336 247.546 123.242 245.277 116.355C243.09 109.252 242 102.008 242 94.598C242 87.1643 243.097 79.9676 245.288 72.9787L245.293 72.9626L245.298 72.9466C247.457 65.9553 250.661 59.8317 254.886 54.5006C259.01 49.297 264.182 45.0885 270.509 41.8746L270.554 41.8519L270.598 41.8287C276.557 38.7071 283.82 37 292.638 37H332.484C335.247 37 336.112 37.79 336.583 38.4017Z" fill="white"/>
<path d="M312.397 88.4495L312.679 88.5812L312.971 88.6906C313.708 88.9671 314.198 89.3205 314.581 89.7378L314.698 89.8659L314.821 89.9889C315.397 90.5643 315.917 91.2895 316.361 92.2391C316.636 92.8297 316.828 93.5754 316.828 94.598C316.828 95.4335 316.665 96.1313 316.361 96.7829C315.916 97.7358 315.366 98.5721 314.708 99.3174C314.224 99.7725 313.548 100.24 312.573 100.667L312.485 100.706L312.397 100.747C311.679 101.082 311.032 101.214 310.386 101.214C309.576 101.214 308.778 101.059 307.937 100.704C307.094 100.3 306.432 99.8341 305.895 99.3224C305.285 98.6329 304.768 97.8655 304.341 96.9998C304.089 96.3023 303.944 95.5193 303.944 94.598C303.944 93.5201 304.105 92.6855 304.342 92.0221C304.762 91.1779 305.246 90.5197 305.777 89.9889L305.9 89.8659L306.017 89.7378C306.488 89.2238 306.999 88.8744 307.615 88.6278L307.734 88.5804L307.851 88.5293C308.724 88.1472 309.548 87.982 310.386 87.982C311.032 87.982 311.679 88.1143 312.397 88.4495Z" fill="white"/>
<path d="M417.885 88.4495L418.088 88.5444L418.297 88.6278C418.913 88.8744 419.424 89.2238 419.895 89.7378L420.13 89.9942L420.386 90.2292C420.9 90.7004 421.25 91.2107 421.496 91.8271L421.58 92.0356L421.675 92.2391C421.95 92.8297 422.142 93.5754 422.142 94.598C422.142 95.4335 421.979 96.1313 421.675 96.7829L421.58 96.9864L421.496 97.1949C421.223 97.8785 420.8 98.5419 420.135 99.2071C419.56 99.7826 418.834 100.303 417.885 100.747C417.233 101.051 416.536 101.214 415.7 101.214C414.889 101.214 414.091 101.059 413.249 100.703C412.385 100.29 411.617 99.7896 410.926 99.1978C410.314 98.4828 409.799 97.6852 409.377 96.7829C409.073 96.1313 408.91 95.4335 408.91 94.598C408.91 93.5754 409.102 92.8297 409.377 92.2391C409.821 91.2895 410.341 90.5643 410.917 89.9889C411.582 89.3236 412.245 88.9013 412.929 88.6278L413.048 88.5804L413.165 88.5293C414.038 88.1472 414.862 87.982 415.7 87.982C416.536 87.982 417.233 88.1454 417.885 88.4495Z" fill="white"/>
<path fill-rule="evenodd" clip-rule="evenodd" d="M449.351 41.804L449.419 41.84L449.487 41.8746C455.814 45.0885 460.986 49.297 465.11 54.5006C469.335 59.8317 472.539 65.9553 474.698 72.9466L474.703 72.9626L474.708 72.9787C476.887 79.931 477.927 87.0888 477.823 94.4853L477.822 94.5417V94.598C477.822 102.026 476.727 109.286 474.53 116.405C472.375 123.273 469.173 129.348 464.936 134.695L464.907 134.732L464.878 134.769C460.879 139.939 455.774 144.194 449.443 147.518C443.447 150.554 436.273 152.196 427.706 152.196H403.868C395.312 152.196 388.146 150.558 382.155 147.53C375.927 144.204 370.784 139.928 366.638 134.695C362.391 129.336 359.124 123.242 356.855 116.355C354.668 109.252 353.578 102.008 353.578 94.598C353.578 87.1377 354.625 79.9171 356.713 72.9105C358.872 65.9342 362.073 59.8225 366.29 54.5006C370.414 49.297 375.586 45.0885 381.913 41.8746L381.958 41.8519L382.002 41.8287C387.974 38.7004 395.183 37 403.868 37H427.706C436.395 37 443.523 38.7018 449.351 41.804ZM369.634 115.29L369.644 115.317L369.655 115.344C372.338 121.98 376.41 127.641 381.837 132.211L381.923 132.284L382.012 132.355C388.177 137.255 395.642 139.486 403.868 139.486H427.706C435.847 139.486 443.231 137.236 449.293 132.291L449.341 132.251L449.389 132.211C454.816 127.641 458.888 121.98 461.571 115.344L461.582 115.317L461.592 115.29C464.191 108.725 465.46 101.745 465.46 94.424C465.46 87.1143 464.195 80.1798 461.582 73.7046C458.91 66.9665 454.832 61.2632 449.34 56.7694C443.289 51.6945 435.887 49.362 427.706 49.362H403.868C395.586 49.362 388.089 51.6843 381.925 56.7372C376.413 61.236 372.322 66.9507 369.644 73.7051C367.031 80.1801 365.766 87.1145 365.766 94.424C365.766 101.745 367.035 108.725 369.634 115.29Z" fill="white"/>
<path d="M589.93 94.598C589.93 102.028 588.834 109.29 586.636 116.411C584.482 123.277 581.28 129.35 577.044 134.695C572.913 139.909 567.725 144.185 561.377 147.518C555.381 150.554 548.207 152.196 539.64 152.196H498.924C496.979 152.196 496.013 151.772 495.532 151.452C494.544 150.793 493.963 150.104 493.587 149.38C493.076 148.272 492.83 147.147 492.83 145.928C492.83 144.5 493.113 143.422 493.551 142.546L493.589 142.47L493.626 142.393C494.031 141.538 494.613 140.843 495.532 140.23C496.013 139.91 496.979 139.486 498.924 139.486H539.64C547.859 139.486 555.315 137.256 561.401 132.291L561.41 132.284L561.419 132.277C566.972 127.72 571.133 122.054 573.836 115.385C576.575 108.797 577.916 101.784 577.916 94.424C577.916 87.0862 576.583 80.1267 573.837 73.6366C571.149 66.8916 566.999 61.2048 561.408 56.7361C555.338 51.6633 547.881 49.362 539.64 49.362H498.924C495.955 49.362 495.009 48.5586 494.596 48.0626C493.287 46.3357 492.83 44.7954 492.83 43.268C492.83 41.552 493.332 40.0534 494.557 38.5216L494.604 38.4621L494.651 38.4017C495.083 37.8405 495.966 37 498.924 37H539.64C548.325 37 555.534 38.7004 561.506 41.8287L561.55 41.8519L561.595 41.8746C567.906 45.0801 572.995 49.2668 576.986 54.427L577.015 54.464L577.044 54.5006C581.269 59.8317 584.473 65.9553 586.632 72.9466L586.637 72.9626L586.642 72.9787C588.833 79.9676 589.93 87.1643 589.93 94.598Z" fill="white"/>
<path d="M710.454 37.3734L710.752 37.5222L711.061 37.6458C711.835 37.9553 712.419 38.3525 712.899 38.8328L713.022 38.9558L713.15 39.0732C713.664 39.5444 714.014 40.0547 714.26 40.6711L714.384 40.9801L714.533 41.2777C714.777 41.7656 714.906 42.2774 714.906 42.92C714.906 43.9426 714.714 44.6883 714.439 45.2789L714.344 45.4824L714.26 45.6909C714.014 46.3073 713.664 46.8176 713.15 47.2888L713.022 47.4062L712.899 47.5291C712.349 48.0789 711.663 48.5788 710.775 49.0087C710.222 49.2302 709.59 49.362 708.812 49.362H611.198C609.372 49.362 608.044 48.8099 606.763 47.5291C605.531 46.297 604.93 44.9323 604.93 42.92C604.93 41.4684 605.378 40.2176 606.763 38.8329C608.044 37.5521 609.372 37 611.198 37H708.812C709.455 37 709.966 37.1295 710.454 37.3734Z" fill="white"/>
<path d="M710.454 139.685L710.752 139.834L711.061 139.958C711.835 140.267 712.419 140.665 712.899 141.145L713.022 141.268L713.15 141.385C713.664 141.856 714.014 142.367 714.26 142.983L714.344 143.192L714.439 143.395C714.774 144.113 714.906 144.76 714.906 145.406C714.906 146.244 714.741 147.068 714.359 147.941L714.308 148.058L714.26 148.177C713.987 148.861 713.564 149.524 712.899 150.189C712.349 150.739 711.663 151.239 710.775 151.669C710.222 151.89 709.59 152.022 708.812 152.022H611.198C609.399 152.022 608.084 151.486 606.821 150.246C605.522 148.87 604.93 147.395 604.93 145.406C604.93 143.766 605.431 142.476 606.763 141.145C608.044 139.864 609.372 139.312 611.198 139.312H708.812C709.455 139.312 709.966 139.441 710.454 139.685Z" fill="white"/>
<path d="M680.771 87.4808L680.808 87.5409L680.846 87.6004C681.84 89.1542 682.368 90.8931 682.368 93.032C682.368 94.8749 681.88 96.5888 680.76 98.328C680.472 98.7377 680.266 98.8601 680.164 98.9124C680.039 98.9759 679.683 99.126 678.884 99.126H609.632C607.862 99.126 607.193 98.6613 606.702 98.0584C605.568 96.3632 605.104 94.7391 605.104 93.032C605.104 91.0104 605.625 89.3463 606.657 87.8167C606.981 87.3529 607.491 86.764 609.632 86.764H678.884C679.834 86.764 680.229 86.942 680.326 86.9927L680.328 86.9936C680.388 87.0248 680.538 87.1028 680.771 87.4808Z" fill="white"/>
<path d="M837.748 38.4017L837.853 38.5379L837.963 38.6695C839.258 40.2114 839.743 41.6601 839.743 43.268C839.743 44.7088 839.291 46.2202 837.865 47.9853L837.854 47.9999L837.842 48.0144C837.412 48.5522 836.523 49.362 833.649 49.362H736.209C733.24 49.362 732.294 48.5587 731.881 48.0626C730.572 46.3357 730.115 44.7954 730.115 43.268C730.115 41.552 730.616 40.0534 731.842 38.5216L731.889 38.4621L731.936 38.4017C732.368 37.8405 733.251 37 736.209 37H833.649C836.412 37 837.277 37.79 837.748 38.4017Z" fill="white"/>
<path d="M742.353 149.88L742.344 149.889L742.336 149.898C741.933 150.335 741.288 150.826 740.171 151.254C739.007 151.627 737.646 151.848 736.035 151.848C734.476 151.848 733.057 151.641 731.746 151.255C730.94 150.914 730.364 150.517 729.928 150.096C729.928 150.063 729.929 150.025 729.931 149.982L729.941 149.782V93.3802L729.933 93.2065C729.839 91.0353 730.003 89.5645 730.231 88.6367C730.365 88.0922 730.497 87.8272 730.551 87.7343C730.646 87.6644 730.932 87.4831 731.569 87.2902C732.514 87.0039 734.005 86.764 736.209 86.764H823.905C825.877 86.764 826.354 87.3088 826.723 87.8417L826.765 87.9025L826.809 87.9624C827.91 89.4917 828.433 91.1023 828.433 93.032C828.433 94.7716 827.951 96.4249 826.77 98.1552C826.45 98.5875 825.919 99.126 823.905 99.126H742.477V149.582C742.477 149.673 742.469 149.723 742.467 149.739L742.464 149.742C742.453 149.759 742.422 149.806 742.353 149.88Z" fill="white"/>
<path d="M960.267 37.3734L960.565 37.5222L960.874 37.6458C961.648 37.9553 962.232 38.3525 962.712 38.8328L962.835 38.9558L962.963 39.0732C963.477 39.5444 963.827 40.0547 964.073 40.6711L964.197 40.9801L964.346 41.2777C964.59 41.7656 964.719 42.2774 964.719 42.92C964.719 43.9426 964.527 44.6883 964.252 45.2789L964.157 45.4824L964.073 45.6909C963.827 46.3073 963.477 46.8176 962.963 47.2888L962.835 47.4062L962.712 47.5291C962.162 48.0789 961.476 48.5788 960.588 49.0088C960.034 49.2302 959.403 49.362 958.625 49.362H861.011C859.185 49.362 857.857 48.8099 856.576 47.5291C855.344 46.297 854.743 44.9323 854.743 42.92C854.743 41.4684 855.191 40.2176 856.576 38.8329C857.857 37.5521 859.185 37 861.011 37H958.625C959.268 37 959.779 37.1295 960.267 37.3734Z" fill="white"/>
<path d="M960.267 139.685L960.565 139.834L960.874 139.958C961.648 140.267 962.232 140.665 962.712 141.145L962.835 141.268L962.963 141.385C963.477 141.856 963.827 142.367 964.073 142.983L964.157 143.192L964.252 143.395C964.587 144.113 964.719 144.76 964.719 145.406C964.719 146.244 964.554 147.068 964.172 147.941L964.121 148.058L964.073 148.177C963.8 148.861 963.377 149.524 962.712 150.189C962.162 150.739 961.476 151.239 960.588 151.669C960.035 151.89 959.403 152.022 958.625 152.022H861.011C859.211 152.022 857.896 151.486 856.632 150.245C855.335 148.869 854.743 147.394 854.743 145.406C854.743 143.766 855.244 142.476 856.576 141.145C857.857 139.864 859.185 139.312 861.011 139.312H958.625C959.268 139.312 959.779 139.441 960.267 139.685Z" fill="white"/>
<path d="M930.584 87.4808L930.621 87.5409L930.659 87.6004C931.653 89.1542 932.181 90.8931 932.181 93.032C932.181 94.875 931.693 96.5889 930.572 98.3282C930.285 98.7378 930.079 98.8601 929.977 98.9124C929.852 98.9759 929.496 99.126 928.697 99.126H859.445C857.675 99.126 857.006 98.6615 856.515 98.0587C855.381 96.3634 854.917 94.7392 854.917 93.032C854.917 91.0082 855.439 89.3427 856.473 87.8118C856.798 87.3488 857.311 86.764 859.445 86.764H928.697C929.647 86.764 930.042 86.942 930.139 86.9927L930.141 86.9936C930.201 87.0249 930.351 87.103 930.584 87.4808Z" fill="white"/>
<path d="M1081.71 151.646C1080.48 152.005 1079.12 152.059 1077.48 151.64C1076.44 151.293 1075.41 150.601 1074.38 149.086L1074.06 148.611L991.733 58.4939V145.58C991.733 148.454 990.923 149.343 990.385 149.773C988.854 150.999 987.355 151.5 985.639 151.5C984.102 151.5 982.65 151.04 981.067 149.773C980.529 149.343 979.719 148.454 979.719 145.58V42.92C979.719 40.8229 980.216 39.8551 980.595 39.3683C981.506 38.2371 982.43 37.6581 983.444 37.3494C984.511 37.0247 985.814 36.9505 987.561 37.4209L987.597 37.4306L987.633 37.44C989.093 37.8184 990.566 38.6477 992.083 40.3074L992.085 40.3102L1073.16 129.783V42.92C1073.16 40.1571 1073.95 39.2916 1074.56 38.821C1076.26 37.5098 1077.87 37 1079.6 37C1081.32 37 1082.93 37.5098 1084.64 38.821C1085.25 39.2916 1086.04 40.1571 1086.04 42.92V145.58C1086.04 147.826 1085.48 148.872 1084.99 149.447C1083.98 150.638 1082.91 151.295 1081.71 151.646Z" fill="white"/>
<path d="M1198.14 94.598C1198.14 102.028 1197.04 109.29 1194.85 116.411C1192.69 123.277 1189.49 129.35 1185.26 134.695C1181.12 139.909 1175.94 144.185 1169.59 147.518C1163.59 150.553 1156.42 152.196 1147.85 152.196H1107.14C1105.19 152.196 1104.22 151.772 1103.74 151.452C1102.75 150.793 1102.17 150.104 1101.8 149.38C1101.29 148.272 1101.04 147.147 1101.04 145.928C1101.04 144.5 1101.32 143.422 1101.76 142.546L1101.8 142.47L1101.84 142.393C1102.24 141.538 1102.82 140.843 1103.74 140.23C1104.22 139.91 1105.19 139.486 1107.14 139.486H1147.85C1156.07 139.486 1163.53 137.256 1169.61 132.291L1169.62 132.284L1169.63 132.277C1175.19 127.718 1179.35 122.049 1182.05 115.376C1184.79 108.791 1186.13 101.781 1186.13 94.424C1186.13 87.0852 1184.79 80.125 1182.05 73.6341C1179.36 66.8908 1175.21 61.2051 1169.62 56.7372C1163.55 51.6636 1156.09 49.362 1147.85 49.362H1107.14C1104.17 49.362 1103.22 48.5595 1102.81 48.0634C1101.5 46.3361 1101.04 44.7956 1101.04 43.268C1101.04 41.552 1101.54 40.0534 1102.77 38.5216L1102.82 38.4621L1102.86 38.4017C1103.29 37.8405 1104.18 37 1107.14 37H1147.85C1156.54 37 1163.74 38.7004 1169.72 41.8287L1169.76 41.8519L1169.81 41.8746C1176.12 45.0801 1181.21 49.2668 1185.2 54.427L1185.23 54.464L1185.26 54.5006C1189.48 59.8317 1192.68 65.9553 1194.84 72.9466L1194.85 72.9626L1194.85 72.9787C1197.04 79.9676 1198.14 87.1643 1198.14 94.598Z" fill="white"/>
</svg>
