<?xml version="1.0" encoding="UTF-8"?>
<svg width="16px" height="16px" viewBox="0 0 16 16" version="1.1" xmlns="http://www.w3.org/2000/svg" xmlns:xlink="http://www.w3.org/1999/xlink">
    <title>ic/os/Fedora_hover</title>
    <g id="ic/os/Fedora_hover" stroke="none" stroke-width="1" fill="none" fill-rule="evenodd">
        <g id="fedora-seeklogo.com">
            <path d="M7.999875,2.01402263e-13 C12.4181875,2.01402263e-13 16,3.581875 16,8.00025 C16,12.4174375 12.42,15.9980625 8.003125,15.9998125 L8.003125,15.9998125 L1.8188125,15.9998125 C0.8155625,15.9998125 0.002375,15.188125 -7.97754007e-13,14.1855 L-7.97754007e-13,14.1855 L-7.97754007e-13,7.994625 C0.003125,3.578875 3.5835,2.01402263e-13 7.999875,2.01402263e-13 Z M10.34875,1.8941875 C8.2794375,1.8941875 6.5959375,3.577625 6.5959375,5.647 L6.5959375,7.638875 L4.6123125,7.638875 C2.543,7.638875 0.8595,9.3224375 0.8595,11.39175 C0.8595,13.461 2.543,15.1445625 4.6123125,15.1445625 C6.681625,15.1445625 8.365125,13.461 8.365125,11.39175 L8.365125,9.3998125 L10.34875,9.3998125 C12.4180625,9.3998125 14.101625,7.7163125 14.101625,5.647 C14.101625,3.577625 12.4180625,1.8941875 10.34875,1.8941875 Z M6.5959375,9.39425 L6.5959375,9.3998125 L6.6098125,9.3998125 L6.6098125,11.39175 C6.6098125,12.493125 5.71375,13.3891875 4.6123125,13.3891875 C3.510875,13.3891875 2.6148125,12.493125 2.6148125,11.39175 C2.6148125,10.2903125 3.510875,9.39425 4.6123125,9.39425 L6.5959375,9.39425 Z M10.34875,3.6495 C11.450125,3.6495 12.34625,4.5455625 12.34625,5.647 C12.34625,6.7484375 11.450125,7.6445 10.34875,7.6445 L8.365125,7.6445 L8.365125,7.638875 L8.3513125,7.638875 L8.3513125,5.647 C8.3513125,4.5455625 9.247375,3.6495 10.34875,3.6495 Z" id="Combined-Shape" fill="#294172"></path>
            <path d="M10.34875,1.8941875 C8.2794375,1.8941875 6.5959375,3.577625 6.5959375,5.647 L6.5959375,7.638875 L4.6123125,7.638875 C2.543,7.638875 0.8595,9.3224375 0.8595,11.39175 C0.8595,13.461 2.543,15.1445625 4.6123125,15.1445625 C6.681625,15.1445625 8.365125,13.461 8.365125,11.39175 L8.365125,9.3998125 L10.34875,9.3998125 C12.4180625,9.3998125 14.101625,7.7163125 14.101625,5.647 C14.101625,3.577625 12.4180625,1.8941875 10.34875,1.8941875 L10.34875,1.8941875 Z M6.6098125,11.39175 C6.6098125,12.493125 5.71375,13.3891875 4.6123125,13.3891875 C3.510875,13.3891875 2.6148125,12.493125 2.6148125,11.39175 C2.6148125,10.2903125 3.510875,9.39425 4.6123125,9.39425 L6.5959375,9.39425 L6.5959375,9.3998125 L6.6098125,9.3998125 L6.6098125,11.39175 L6.6098125,11.39175 Z M10.34875,7.6445 L8.365125,7.6445 L8.365125,7.638875 L8.3513125,7.638875 L8.3513125,5.647 C8.3513125,4.5455625 9.247375,3.6495 10.34875,3.6495 C11.450125,3.6495 12.34625,4.5455625 12.34625,5.647 C12.34625,6.7484375 11.450125,7.6445 10.34875,7.6445 L10.34875,7.6445 Z" id="Shape" fill="#3C6EB4"></path>
            <path d="M11.1781875,2.008 C10.8869375,1.931875 10.6633125,1.896375 10.34875,1.896375 C8.2751875,1.896375 6.5940625,3.5775625 6.5940625,5.651 L6.5940625,7.641125 L5.0215625,7.641125 C4.53125,7.641125 4.135,8.0264375 4.1353125,8.515875 C4.1353125,9.00225 4.5271875,9.3891875 5.0123125,9.3891875 L6.31425,9.3894375 C6.4688125,9.3894375 6.5941875,9.5144375 6.5941875,9.66875 L6.5941875,11.3908125 C6.59225,12.484 5.7055,13.3695 4.6123125,13.3695 C4.242,13.3695 4.1503125,13.321 3.8975,13.321 C3.3664375,13.321 3.011125,13.677 3.011125,14.1665 C3.01125,14.5714375 3.35825,14.9195625 3.782875,15.0306875 C4.074125,15.1068125 4.29775,15.142375 4.6123125,15.142375 C6.685875,15.142375 8.367,13.4611875 8.367,11.3876875 L8.367,9.397625 L9.9395,9.397625 C10.4298125,9.397625 10.8260625,9.0123125 10.82575,8.522875 C10.82575,8.0364375 10.433875,7.6495625 9.94875,7.6495625 L8.6468125,7.6493125 C8.49225,7.6493125 8.366875,7.52425 8.366875,7.3699375 L8.366875,5.647875 C8.3688125,4.5546875 9.2555625,3.6691875 10.34875,3.6691875 C10.7190625,3.6691875 10.81075,3.71775 11.0635625,3.71775 C11.594625,3.71775 11.9499375,3.3616875 11.9499375,2.87225 C11.9498125,2.46725 11.6028125,2.119125 11.1781875,2.008" id="Path" fill="#FFFFFF"></path>
        </g>
    </g>
</svg>