<svg width="17" height="16" viewBox="0 0 17 16" fill="none" xmlns="http://www.w3.org/2000/svg">
<path d="M12.8038 8.5003C12.8262 10.9216 14.9126 11.7274 14.9357 11.7376C14.9181 11.7944 14.6023 12.8859 13.8365 14.0133C13.1744 14.988 12.4873 15.9591 11.4049 15.9792C10.3413 15.9989 9.9993 15.3439 8.78332 15.3439C7.56771 15.3439 7.18773 15.9591 6.18093 15.9989C5.13612 16.0388 4.34048 14.945 3.67296 13.9738C2.30889 11.9874 1.26647 8.36062 2.66618 5.91249C3.36153 4.69673 4.60417 3.92687 5.95295 3.90713C6.97892 3.88741 7.94729 4.6024 8.57451 4.6024C9.20134 4.6024 10.3781 3.74257 11.6153 3.86884C12.1332 3.89056 13.587 4.07957 14.5205 5.45595C14.4452 5.50291 12.7858 6.476 12.8038 8.5003ZM10.805 2.55464C11.3597 1.87831 11.733 0.936799 11.6311 0C10.8316 0.0323694 9.86475 0.536681 9.29125 1.21264C8.77728 1.81123 8.32716 2.76931 8.44861 3.68757C9.33981 3.75702 10.2502 3.2314 10.805 2.55464Z" fill="#00ADEF"/>
</svg>
