<?xml version="1.0" encoding="UTF-8"?>
<svg width="16px" height="16px" viewBox="0 0 16 16" version="1.1" xmlns="http://www.w3.org/2000/svg" xmlns:xlink="http://www.w3.org/1999/xlink">
    <title>ic/os/window_hover</title>
    <g id="ic/os/window_hover" stroke="none" stroke-width="1" fill="none" fill-rule="evenodd">
        <path d="M15.9981513,8.43684703 C16.0018081,10.9572766 15.9981513,13.4777467 15.9981513,16 C13.1121992,15.5686547 10.2208025,15.1683948 7.32932462,14.7772133 C7.32570849,12.6643793 7.32018273,10.5515453 7.31652597,8.43684703 L15.9981513,8.43684703 Z M7.18092252e-13,8.3527422 C2.17865435,8.34544706 4.3573087,8.38018002 6.53596305,8.37653245 C6.53596305,10.4783832 6.54144818,12.580315 6.53779143,14.6822063 C4.36096545,14.3604907 2.18048273,14.0790605 7.18092252e-13,13.7847828 L7.18092252e-13,8.3527422 Z M6.53779143,1.37994014 L6.54144818,7.66737617 L6.54144818,7.66737617 C4.36096545,7.66555239 2.18048273,7.69842103 -3.2018832e-13,7.69290915 L-3.2018832e-13,2.27553988 C2.17312859,1.94105782 4.35548032,1.65229195 6.53779143,1.37994014 Z M15.9981716,-3.24185123e-14 C16,2.52776522 15.9981716,5.05366612 16,7.58143134 C13.1103911,7.59241458 10.2208228,7.63630699 7.32934493,7.64542591 C7.32751655,5.51427301 7.32751655,3.38498443 7.32934493,1.25565531 C10.2152971,0.815150583 13.1067343,0.400300418 15.9981716,-3.24185123e-14 Z" id="Combined-Shape" fill="#00ADEF"></path>
    </g>
</svg>